<svg width="80" height="80" viewBox="0 0 80 80" fill="none" xmlns="http://www.w3.org/2000/svg">
<rect width="80" height="80" rx="12" fill="#C21325"/>
<path d="M25 15h30v8H25v-8z" fill="white"/>
<path d="M30 23v20c0 5.5-4.5 10-10 10s-10-4.5-10-10c0-2.8 1.1-5.3 3-7.1L30 23z" fill="white"/>
<path d="M50 23v20c0 5.5 4.5 10 10 10s10-4.5 10-10c0-2.8-1.1-5.3-3-7.1L50 23z" fill="white"/>
<circle cx="20" cy="43" r="3" fill="#C21325"/>
<circle cx="60" cy="43" r="3" fill="#C21325"/>
<path d="M35 60c0 2.8 2.2 5 5 5s5-2.2 5-5-2.2-5-5-5-5 2.2-5 5z" fill="white"/>
</svg>