<svg width="80" height="80" viewBox="0 0 80 80" fill="none" xmlns="http://www.w3.org/2000/svg">
<rect width="80" height="80" rx="12" fill="#06B6D4"/>
<path d="M40 20c-6.67 0-10.83 3.33-12.5 10 2.5-3.33 5.42-4.58 8.75-3.75 1.9.47 3.26 1.84 4.77 3.36C43.94 32.53 47.34 36 55 36c6.67 0 10.83-3.33 12.5-10-2.5 3.33-5.42 4.58-8.75 3.75-1.9-.47-3.26-1.84-4.77-3.36C51.06 23.47 47.66 20 40 20zM27.5 36c-6.67 0-10.83 3.33-12.5 10 2.5-3.33 5.42-4.58 8.75-3.75 1.9.47 3.26 1.84 4.77 3.36C31.44 48.53 34.84 52 42.5 52c6.67 0 10.83-3.33 12.5-10-2.5 3.33-5.42 4.58-8.75 3.75-1.9-.47-3.26-1.84-4.77-3.36C38.56 39.47 35.16 36 27.5 36z" fill="white"/>
</svg>